<svg width="100" height="100" viewBox="0 0 100 100" fill="none" xmlns="http://www.w3.org/2000/svg">
<path d="M45.2875 0.595473C47.7728 -0.201878 50.3949 0.0419723 52.9623 0.0148779C61.9111 0.711593 70.051 7.20265 72.6458 15.7258C73.8454 18.9423 73.525 22.4259 73.4547 25.7856C72.8802 30.3994 70.5707 34.6416 67.5539 38.1484C69.4062 37.5214 71.2819 36.8092 73.2632 36.7821C75.7251 36.7085 78.1987 36.6543 80.6528 36.8982C86.5731 38.0555 91.9736 41.632 95.2874 46.6328C97.1944 49.47 98.4136 52.7562 98.8864 56.1275C98.9294 58.9763 99.2264 61.9102 98.355 64.6778C96.9443 70.3908 93.5914 75.682 88.6793 79.0572C85.7251 81.0622 82.2784 82.3433 78.7341 82.8194C75.4906 82.9743 72.169 83.102 69.0311 82.1266C63.9939 80.888 59.6368 77.8147 56.2136 74.0215C56.237 74.9311 56.2019 75.86 56.4715 76.7425C58.2847 83.4697 60.3793 90.3323 64.541 96.0454C65.4945 97.4853 66.9873 98.4839 67.8587 99.978C56.1823 99.978 44.502 100.048 32.8256 99.9392C34.2324 98.1317 36.0378 96.6415 37.2101 94.652C41.2624 88.2499 43.3648 80.8686 45.0061 73.5609C43.8455 74.7724 42.6575 75.9645 41.4109 77.0909C38.2886 79.7539 34.4629 81.5692 30.4536 82.4633C27.8353 83.0865 25.1155 82.9162 22.4465 82.8504C16.4403 82.235 10.7467 79.0301 7.15933 74.215C4.13471 70.1779 2.43483 65.2429 2.02061 60.2575C1.75097 53.9754 4.13471 47.5347 8.73025 43.1493C11.8057 39.9753 15.9127 37.8813 20.223 36.9291C22.7865 36.635 25.3813 36.7085 27.9565 36.7859C30.012 36.7975 31.8955 37.7226 33.8885 38.0942C32.8295 36.155 31.2703 34.5294 30.348 32.5089C28.8592 29.3272 27.9018 25.8282 28.0815 22.2981C27.8979 12.2964 35.4907 2.87528 45.2875 0.595473Z" fill="white"/>
</svg>
