<svg width="100" height="100" viewBox="0 0 100 100" fill="none" xmlns="http://www.w3.org/2000/svg">
<path d="M2.28683 21.1923C6.50728 11.8782 17.1672 5.7599 27.4385 7.21738C33.1474 8.61333 38.3277 11.7437 42.5482 15.7546C45.4901 18.6311 47.7169 22.1114 49.7455 25.6532C50.2119 25.4378 50.6121 25.111 50.8181 24.6303C53.6628 19.2695 57.7783 14.4702 63.0364 11.2976C66.0016 9.5132 69.1767 7.95573 72.5888 7.20969C84.127 5.583 95.8751 13.6126 98.9413 24.638C101.51 32.7522 99.295 42.0854 93.4812 48.3269C88.6894 53.3261 83.6062 58.0485 78.9117 63.1363C70.2881 71.9196 61.6374 80.6722 53.0721 89.5132C52.085 90.5208 51.0979 91.5322 49.9903 92.4167C47.4876 90.6785 45.4124 88.4288 43.3216 86.2406C40.3253 82.7796 36.8238 79.7877 33.8197 76.3344C30.1084 72.4465 26.1833 68.7624 22.5807 64.7706C17.2372 59.5406 12.22 54.003 6.8687 48.7806C3.37498 45.2119 1.06655 40.5664 0.215468 35.6825C-0.297515 30.7794 -0.00216016 25.657 2.28683 21.1923Z" fill="white"/>
</svg>
