<svg width="100" height="100" viewBox="0 0 100 100" fill="none" xmlns="http://www.w3.org/2000/svg">
<path d="M47.7508 2.50422C48.6355 1.612 49.449 0.614808 50.5699 0C52.9916 2.48172 55.4583 4.92221 57.8426 7.43768C61.0816 11.0628 64.6242 14.3955 67.9569 17.9306C71.2559 21.6232 74.881 25.0084 78.255 28.6298C81.7376 32.5136 85.5877 36.0412 89.0891 39.91C90.4724 41.4133 92.0019 42.7779 93.314 44.3486C96.0132 47.7038 97.7001 51.8201 98.3075 56.0712C98.4312 58.2231 98.4387 60.3861 98.3 62.538C97.5352 67.6551 95.2222 72.6073 91.4733 76.2137C87.9607 79.865 83.1997 82.2268 78.2212 83.0478C75.762 83.2277 73.2878 83.2052 70.8285 83.0665C66.2625 82.418 61.9513 80.3261 58.4799 77.3083C57.4602 76.3674 56.5155 75.3515 55.5146 74.3918C56.9579 81.4396 59.1022 88.4873 62.9185 94.6392C64.0994 96.6973 65.9251 98.2306 67.5221 99.9438C55.9944 100.019 44.4593 100.019 32.9279 99.9438C34.4199 98.358 36.1144 96.9372 37.2953 95.0815C39.9344 91.0703 41.6926 86.553 43.091 81.9831C43.7208 79.7113 44.6317 77.462 44.4668 75.059C42.7611 76.4049 41.3515 78.1181 39.4846 79.269C35.4771 82.0169 30.6299 83.2652 25.8201 83.4489C23.1922 83.1453 20.5118 82.9278 18.0225 81.9569C11.2522 79.6214 5.74513 74.0544 3.37587 67.3065C0.391803 59.1003 2.35244 49.3158 8.37681 42.9766C10.3862 40.9859 12.3806 38.9841 14.3 36.9072C18.1088 32.8322 22.1313 28.9672 25.9851 24.9372C30.2587 20.2324 34.9148 15.895 39.2297 11.2277C42.0225 8.27366 44.8941 5.39456 47.7508 2.50422Z" fill="white"/>
</svg>
