<svg width="53" height="12" viewBox="0 0 53 12" fill="none" xmlns="http://www.w3.org/2000/svg">
<g clip-path="url(#clip0)">
<path d="M6.89663 4.45264H10.0674L10.0674 10.0674L0 10.0674L0 4.45264H3.17074L3.17074 7.25943L6.89663 7.25943V4.45264ZM17.6078 7.33199C17.6078 8.28218 16.9801 8.84423 16.1221 8.84423C15.2836 8.84423 14.6467 8.28218 14.6467 7.33199L14.6467 2.8114H13.2393L13.2393 7.31817C13.2393 9.09761 14.5062 10.2217 16.1255 10.2217C17.7449 10.2217 19.0222 9.09761 19.0222 7.31817V2.8114H17.6113L17.6078 7.33199ZM22.6409 4.89836C22.0996 4.89836 21.4961 5.12871 21.1897 5.65505V5.03196H19.871V10.0582H21.2312V7.16729C21.2312 6.59142 21.5767 6.13072 22.171 6.13072C22.8252 6.13072 23.1016 6.57069 23.1016 7.13274V10.0582H24.4607V6.88972C24.4641 5.7852 23.8917 4.89606 22.6444 4.89606L22.6409 4.89836ZM27.6291 7.01411L26.8828 6.86093C26.5983 6.80334 26.4221 6.65707 26.4221 6.41175C26.4221 6.12497 26.6789 5.91074 27.036 5.91074C27.5381 5.91074 27.7374 6.16988 27.7858 6.47279H28.9582C28.949 5.78175 28.4019 4.87878 27.0567 4.87878C25.9729 4.87878 25.1759 5.62396 25.1759 6.52347C25.1759 7.22949 25.6147 7.81227 26.5856 8.02073L27.2825 8.17391C27.6706 8.25569 27.8238 8.43997 27.8238 8.66456C27.8238 8.93061 27.5773 9.16556 27.1327 9.16556C26.5903 9.16556 26.2954 8.8569 26.2263 8.49871H25.017C25.0849 9.25079 25.6297 10.2079 27.1431 10.2079C28.4618 10.2079 29.1264 9.36942 29.1264 8.55169C29.1252 7.81918 28.6242 7.21682 27.6326 7.01181L27.6291 7.01411ZM34.907 7.53585C34.907 9.05845 33.9556 10.1849 32.5355 10.1849C31.8445 10.1849 31.3285 9.90844 31.0832 9.57098V12.0046H29.7241V5.02966H31.0429V5.65275C31.2732 5.26461 31.8295 4.91679 32.5862 4.91679C34.0616 4.91679 34.9104 6.04089 34.9104 7.53355L34.907 7.53585ZM33.5675 7.54621C33.5675 6.65707 33.0158 6.13533 32.3202 6.13533C31.6245 6.13533 31.0636 6.65707 31.0636 7.54621C31.0636 8.43536 31.6257 8.96631 32.3202 8.96631C33.0147 8.96631 33.5767 8.44342 33.5767 7.54391L33.5675 7.54621ZM41.3993 5.03196H42.7181V10.0582H41.359V9.44659C41.1287 9.8497 40.6023 10.1814 39.9067 10.1814C38.4866 10.1814 37.5353 9.05615 37.5353 7.53239C37.5353 6.03513 38.3841 4.91564 39.856 4.91564C40.6127 4.91564 41.1598 5.26692 41.3993 5.6516V5.03196ZM41.3786 7.54621C41.3786 6.65707 40.8166 6.13533 40.1221 6.13533C39.4276 6.13533 38.8747 6.65477 38.8747 7.54391C38.8747 8.43306 39.4264 8.96401 40.1221 8.96401C40.8177 8.96401 41.3798 8.43421 41.3798 7.54391L41.3786 7.54621ZM35.5439 10.0582L36.903 10.0582V2.8114H35.5439V10.0582ZM50.7872 4.89721C50.3069 4.89721 49.7506 5.0596 49.427 5.44774V2.8114L48.0679 2.8114V10.057H49.427V7.10395C49.4581 6.55111 49.7955 6.12266 50.368 6.12266C51.0222 6.12266 51.2986 6.56378 51.2974 7.12583V10.0593H52.6576V6.88972C52.6565 5.7852 52.0645 4.89721 50.7872 4.89721ZM45.9499 7.01181L45.2093 6.85862C44.9248 6.80104 44.7486 6.65477 44.7486 6.40945C44.7486 6.12266 45.0043 5.90844 45.3625 5.90844C45.8635 5.90844 46.0627 6.16758 46.1111 6.47049L47.2824 6.47049C47.2732 5.77944 46.7262 4.87648 45.3809 4.87648C44.2971 4.87648 43.5001 5.62165 43.5001 6.52116C43.5001 7.22718 43.9401 7.80996 44.911 8.01843L45.6021 8.17161C45.9902 8.25338 46.1434 8.43766 46.1434 8.66225C46.1434 8.9283 45.8969 9.16326 45.4523 9.16326C44.9099 9.16326 44.615 8.85459 44.5459 8.4964H43.3377C43.4045 9.24849 43.9493 10.2056 45.4627 10.2056C46.7814 10.2056 47.446 9.36712 47.446 8.54938C47.446 7.81918 46.945 7.21682 45.9545 7.01181H45.9499ZM6.89663 1.90735e-06L3.17074 1.90735e-06L3.17074 2.8068L6.89663 2.8068V1.90735e-06Z" fill="white"/>
</g>
<defs>
<clipPath id="clip0">
<path d="M0 1.90735e-06L52.6565 1.90735e-06V12L0 12L0 1.90735e-06Z" fill="white"/>
</clipPath>
</defs>
</svg>
